<svg width="51" height="46" viewBox="0 0 51 46" fill="none" xmlns="http://www.w3.org/2000/svg">
<path d="M17.1643 45.5C19.2354 45.5 20.9143 43.8211 20.9143 41.75C20.9143 39.6789 19.2354 38 17.1643 38C15.0933 38 13.4143 39.6789 13.4143 41.75C13.4143 43.8211 15.0933 45.5 17.1643 45.5Z" fill="#439539"></path>
<path d="M43.4143 45.5C45.4854 45.5 47.1643 43.8211 47.1643 41.75C47.1643 39.6789 45.4854 38 43.4143 38C41.3433 38 39.6643 39.6789 39.6643 41.75C39.6643 43.8211 41.3433 45.5 43.4143 45.5Z" fill="#439539"></path>
<path d="M50.0706 7.15391C49.8072 6.8317 49.4753 6.57219 49.0991 6.39422C48.7229 6.21625 48.3118 6.12428 47.8956 6.125H12.2296L11.5112 2.04922C11.4346 1.61507 11.2075 1.2218 10.8697 0.938478C10.532 0.655157 10.1052 0.499907 9.66434 0.5H2.16434C1.66706 0.5 1.19014 0.697544 0.838512 1.04918C0.486881 1.40081 0.289337 1.87772 0.289337 2.375C0.289337 2.87228 0.486881 3.34919 0.838512 3.70082C1.19014 4.05246 1.66706 4.25 2.16434 4.25H8.09168L13.4425 34.5758C13.5191 35.0099 13.7462 35.4032 14.0839 35.6865C14.4217 35.9698 14.8485 36.1251 15.2893 36.125H45.2893C45.7866 36.125 46.2635 35.9275 46.6152 35.5758C46.9668 35.2242 47.1643 34.7473 47.1643 34.25C47.1643 33.7527 46.9668 33.2758 46.6152 32.9242C46.2635 32.5725 45.7866 32.375 45.2893 32.375H16.862L16.2011 28.625H44.5206C45.1708 28.6242 45.8008 28.3987 46.3039 27.9868C46.8071 27.5749 47.1524 27.0017 47.2815 26.3645L50.6565 9.48945C50.7378 9.08106 50.7275 8.6597 50.6261 8.2558C50.5248 7.85191 50.3351 7.47555 50.0706 7.15391V7.15391Z" fill="#439539"></path>
</svg>
