<svg width="51" height="46" fill="none" xmlns="http://www.w3.org/2000/svg"><path d="M17.164 45.5a3.75 3.75 0 1 0 0-7.5 3.75 3.75 0 0 0 0 7.5ZM43.414 45.5a3.75 3.75 0 1 0 0-7.5 3.75 3.75 0 0 0 0 7.5ZM50.07 7.154a2.803 2.803 0 0 0-2.174-1.029H12.23l-.719-4.076A1.875 1.875 0 0 0 9.664.5h-7.5a1.875 1.875 0 1 0 0 3.75h5.928l5.35 30.326a1.875 1.875 0 0 0 1.847 1.549h30a1.875 1.875 0 1 0 0-3.75H16.862l-.66-3.75H44.52a2.82 2.82 0 0 0 2.76-2.26l3.376-16.876a2.812 2.812 0 0 0-.586-2.335Z" fill="#439539"/></svg>