<svg width="48" height="60" viewBox="0 0 48 60" fill="none" xmlns="http://www.w3.org/2000/svg">
<g clip-path="url('#clip0_6_330')">
<path d="M31.3238 50.4562H29.6219V59.7604H31.3238V50.4562Z" fill="#439539"></path>
<path d="M35.9306 59.7604H34.2255V52.8506H35.9306V59.7604Z" fill="#439539"></path>
<path d="M41.3619 57.8875C40.7993 58.9644 40.3544 59.7884 40.3302 59.7884H38.5598L40.3649 56.2763L38.2628 52.8664H40.1088L41.1928 54.6458L42.1025 52.8664H43.9456C43.9456 52.8664 43.0795 54.5799 42.191 56.2979L44.3164 59.7884H42.5439L41.3619 57.8875H41.3619Z" fill="#439539"></path>
<path d="M10.6477 56.7741L10.6449 52.8506H12.2576C12.2923 54.1288 12.2374 55.5791 12.2566 56.7889C12.2566 57.6184 12.9299 58.3381 13.7732 58.3381C14.6153 58.3381 15.2916 57.7182 15.2916 56.8868L15.2871 52.8506H16.923C16.9217 54.8938 16.902 55.2987 16.924 56.8302C16.924 58.5423 15.4871 59.9296 13.753 59.9296C12.0169 59.9296 10.6477 58.4862 10.6477 56.7741" fill="#439539"></path>
<path d="M23.3596 52.675C25.4108 52.675 27.0749 54.3147 27.0749 56.3372C27.0749 58.3612 25.4108 60 23.3596 60C21.3099 60 19.6262 58.248 19.6262 56.2256L19.6297 50.4523H21.3318L21.3204 53.3583C21.9128 52.9633 22.592 52.675 23.3595 52.675H23.3596ZM23.3476 58.2795C24.4298 58.2795 25.3106 57.4122 25.3106 56.3422C25.3106 55.2721 24.4298 54.4062 23.3476 54.4062C22.2635 54.4062 21.3837 55.2726 21.3837 56.3422C21.3837 57.4117 22.2635 58.2795 23.3476 58.2795V58.2795Z" fill="#439539"></path>
<path d="M4.3654 50.1851C6.41443 50.1851 8.07747 51.8268 8.07747 53.8493C8.07747 55.8718 6.41445 57.5121 4.3654 57.5121C3.63028 57.5121 2.94004 57.3271 2.36299 56.9626L2.359 59.7717H0.655801L0.654799 53.78C0.654799 51.7575 2.31458 50.1852 4.36538 50.1852L4.3654 50.1851ZM4.36141 55.7798C5.44166 55.7798 6.31695 54.9179 6.31695 53.8533C6.31695 52.7886 5.44166 51.9247 4.36141 51.9247C3.28365 51.9247 2.40886 52.7886 2.40886 53.8533C2.40886 54.9179 3.28363 55.7798 4.36141 55.7798Z" fill="#439539"></path>
<path d="M35.1566 52.1255C35.7374 52.1255 36.2094 51.6601 36.2094 51.0869C36.2094 50.5133 35.7374 50.0479 35.1566 50.0479C34.5751 50.0479 34.1018 50.5133 34.1018 51.0869C34.1018 51.66 34.5751 52.1255 35.1566 52.1255Z" fill="#439539"></path>
<path d="M46.4555 58.1374C46.915 58.1374 47.2893 58.5069 47.2893 58.9605C47.2893 59.4121 46.915 59.782 46.4555 59.782C45.9959 59.782 45.6213 59.4121 45.6213 58.9605C45.6213 58.5069 45.9959 58.1374 46.4555 58.1374ZM46.4555 59.663C46.85 59.663 47.1691 59.3481 47.1691 58.9605C47.1691 58.5718 46.85 58.257 46.4555 58.257C46.0614 58.257 45.7423 58.5718 45.7423 58.9605C45.7423 59.3481 46.0614 59.663 46.4555 59.663ZM46.2736 59.4308H46.1524V58.4823H46.5225C46.7402 58.4823 46.8257 58.5752 46.8257 58.746C46.8257 58.9201 46.7138 58.9934 46.5833 59.016L46.8704 59.4308H46.7337L46.4465 59.016H46.2736V59.4308L46.2736 59.4308ZM46.2736 58.9088H46.4288C46.5609 58.9088 46.7046 58.9019 46.7046 58.746C46.7046 58.624 46.5918 58.5885 46.4894 58.5885H46.2736V58.9088V58.9088Z" fill="#439539"></path>
<path d="M40.7597 38.7269C41.4619 38.7269 42.0338 39.2914 42.0338 39.9844C42.0338 40.6745 41.4619 41.2397 40.7597 41.2397C40.0575 41.2397 39.4853 40.6745 39.4853 39.9844C39.4853 39.2914 40.0575 38.7269 40.7597 38.7269ZM40.7597 41.0579C41.3625 41.0579 41.8502 40.5768 41.8502 39.9844C41.8502 39.3906 41.3625 38.9095 40.7597 38.9095C40.1577 38.9095 39.67 39.3906 39.67 39.9844C39.67 40.5768 40.1577 41.0579 40.7597 41.0579ZM40.4819 40.7031H40.2968V39.2538H40.8622C41.1948 39.2538 41.3255 39.3959 41.3255 39.6567C41.3255 39.9228 41.1544 40.0348 40.9552 40.0694L41.3937 40.7031H41.1849L40.746 40.0694H40.482V40.7031H40.4819ZM40.4819 39.9055H40.7189C40.9209 39.9055 41.1403 39.895 41.1403 39.6567C41.1403 39.4703 40.9681 39.4162 40.8115 39.4162H40.4819V39.9055H40.4819Z" fill="#439539"></path>
<path d="M23.4185 16.1459C20.6032 16.1459 18.3181 18.4025 18.3181 21.1835C18.3181 23.9645 20.6032 26.2161 23.4185 26.2161C26.2403 26.2161 28.5267 23.9645 28.5267 21.1835C28.5267 18.4025 26.2403 16.1459 23.4185 16.1459V16.1459Z" fill="#439539"></path>
<path d="M22.7832 0C10.3602 0 0.289337 9.93435 0.289337 22.189C0.289337 34.4436 10.3602 44.3779 22.7832 44.3779C35.2062 44.3779 45.2771 34.4436 45.2771 22.189C45.2771 9.93435 35.2062 0 22.7832 0ZM23.4289 30.7409C21.5086 30.7409 19.7056 30.2577 18.1983 29.3055L18.1879 36.6435H13.7388L13.7362 20.992C13.7362 15.7089 18.0718 11.6017 23.4289 11.6017C28.7814 11.6017 33.1255 15.8901 33.1255 21.1732C33.1255 26.4563 28.7814 30.7409 23.4289 30.7409Z" fill="#439539"></path>
<path d="M23.4289 11.6017C18.0719 11.6017 13.7362 15.7089 13.7362 20.9921L13.7388 36.6435H18.1879L18.1983 29.3055C19.7056 30.2577 21.5087 30.741 23.4289 30.741C28.7814 30.741 33.1255 26.4551 33.1255 21.1733C33.1255 15.8914 28.7814 11.6017 23.4289 11.6017V11.6017ZM23.4185 26.2161C20.6032 26.2161 18.3181 23.9645 18.3181 21.1835C18.3181 18.4025 20.6032 16.1459 23.4185 16.1459C26.2403 16.1459 28.5267 18.4026 28.5267 21.1835C28.5267 23.9645 26.2403 26.2161 23.4185 26.2161V26.2161Z" fill="white"></path>
</g>
<defs>
<clipPath id="clip0_6_330">
<rect width="47" height="60" fill="white" transform="translate(0.289337)"></rect>
</clipPath>
</defs>
</svg>
