<svg width="48" height="60" fill="none" xmlns="http://www.w3.org/2000/svg"><g clip-path="url('#clip0_6_330')"><path d="M31.324 50.456h-1.702v9.304h1.702v-9.304ZM35.93 59.76h-1.705v-6.91h1.706v6.91ZM41.362 57.888c-.563 1.076-1.008 1.9-1.032 1.9h-1.77l1.805-3.512-2.102-3.41h1.846l1.084 1.78.91-1.78h1.843s-.866 1.714-1.755 3.432l2.125 3.49h-1.772l-1.182-1.9ZM10.648 56.774l-.003-3.923h1.613c.034 1.278-.02 2.728-.001 3.938 0 .83.673 1.55 1.516 1.55.842 0 1.519-.62 1.519-1.452l-.005-4.036h1.636c-.001 2.043-.021 2.448.001 3.98 0 1.711-1.437 3.099-3.171 3.099-1.736 0-3.105-1.444-3.105-3.156M23.36 52.675c2.05 0 3.715 1.64 3.715 3.662 0 2.024-1.664 3.663-3.715 3.663-2.05 0-3.734-1.752-3.734-3.774l.004-5.774h1.702l-.012 2.906c.593-.395 1.272-.683 2.04-.683Zm-.012 5.605c1.082 0 1.963-.868 1.963-1.938 0-1.07-.881-1.936-1.963-1.936-1.084 0-1.964.867-1.964 1.936 0 1.07.88 1.938 1.964 1.938ZM4.365 50.185c2.05 0 3.712 1.642 3.712 3.664 0 2.023-1.663 3.663-3.712 3.663-.735 0-1.425-.185-2.002-.55l-.004 2.81H.656L.655 53.78c0-2.023 1.66-3.595 3.71-3.595Zm-.004 5.595c1.08 0 1.956-.862 1.956-1.927 0-1.064-.875-1.928-1.956-1.928-1.077 0-1.952.864-1.952 1.928 0 1.065.875 1.927 1.952 1.927ZM35.157 52.126c.58 0 1.052-.466 1.052-1.04 0-.573-.472-1.038-1.052-1.038-.582 0-1.055.465-1.055 1.039 0 .573.473 1.038 1.055 1.038ZM46.456 58.137c.459 0 .833.37.833.824a.83.83 0 0 1-.834.821.83.83 0 0 1-.834-.821.83.83 0 0 1 .834-.824Zm0 1.526a.708.708 0 0 0 .713-.702.708.708 0 0 0-.713-.704.708.708 0 0 0-.714.704c0 .387.32.702.714.702Zm-.182-.232h-.122v-.949h.37c.218 0 .304.093.304.264 0 .174-.112.247-.243.27l.287.415h-.136l-.288-.415h-.172v.415Zm0-.522h.155c.132 0 .276-.007.276-.163 0-.122-.113-.157-.216-.157h-.215v.32ZM40.76 38.727c.702 0 1.274.564 1.274 1.257 0 .69-.572 1.256-1.274 1.256a1.268 1.268 0 0 1-1.275-1.256c0-.693.572-1.257 1.275-1.257Zm0 2.33c.602 0 1.09-.48 1.09-1.073s-.488-1.075-1.09-1.075c-.602 0-1.09.482-1.09 1.075s.488 1.074 1.09 1.074Zm-.278-.354h-.185v-1.45h.565c.333 0 .463.143.463.404 0 .266-.17.378-.37.412l.439.634h-.21l-.438-.634h-.264v.634Zm0-.797h.237c.202 0 .421-.011.421-.25 0-.186-.172-.24-.328-.24h-.33v.49ZM23.419 16.146c-2.816 0-5.1 2.256-5.1 5.037 0 2.782 2.284 5.033 5.1 5.033 2.821 0 5.108-2.252 5.108-5.033 0-2.78-2.287-5.037-5.108-5.037Z" fill="#439539"/><path d="M22.783 0C10.36 0 .29 9.934.29 22.189S10.36 44.378 22.783 44.378s22.494-9.934 22.494-22.189S35.207 0 22.783 0Zm.646 30.74c-1.92 0-3.723-.482-5.23-1.434l-.011 7.338h-4.45l-.002-15.652c0-5.283 4.336-9.39 9.693-9.39 5.352 0 9.697 4.288 9.697 9.571 0 5.283-4.345 9.568-9.697 9.568Z" fill="#439539"/><path d="M23.429 11.602c-5.357 0-9.693 4.107-9.693 9.39l.003 15.652h4.449l.01-7.338c1.508.952 3.31 1.435 5.23 1.435 5.353 0 9.698-4.286 9.698-9.568s-4.345-9.571-9.697-9.571Zm-.01 14.614c-2.816 0-5.1-2.252-5.1-5.033 0-2.78 2.284-5.037 5.1-5.037 2.821 0 5.108 2.257 5.108 5.037 0 2.782-2.287 5.033-5.108 5.033Z" fill="#fff"/></g><defs><clipPath id="clip0_6_330"><path fill="#fff" transform="translate(.29)" d="M0 0h47v60H0z"/></clipPath></defs></svg>